<mxfile host="app.diagrams.net" agent="Mozilla/5.0 (Windows NT 10.0; Win64; x64) AppleWebKit/537.36 (KHTML, like Gecko) Chrome/127.0.0.0 Safari/537.36" version="24.7.7">
  <diagram name="第 1 页" id="jahxf6-Nlgz9H44ct3V5">
    <mxGraphModel dx="12900" dy="5570" grid="1" gridSize="10" guides="1" tooltips="1" connect="1" arrows="1" fold="1" page="1" pageScale="1" pageWidth="827" pageHeight="1169" math="0" shadow="0">
      <root>
        <mxCell id="0" />
        <mxCell id="1" parent="0" />
        <mxCell id="9cYoRjUQ95D6RNDLffrj-1" value="&lt;p style=&quot;margin:0px;margin-top:4px;text-align:center;&quot;&gt;&lt;b&gt;student_survey_record&lt;/b&gt;&lt;/p&gt;&lt;hr size=&quot;1&quot;/&gt;&lt;p style=&quot;margin:0 0 0 4px;line-height:1.6;&quot;&gt; created_time  /* 创建时间 */: datetime&lt;br/&gt; updated_time  /* 更新时间 */: datetime&lt;br/&gt; created_by  /* 创建者 */: varchar(256)&lt;br/&gt; updated_by  /* 更新者 */: varchar(256)&lt;br/&gt; class_id  /* 班级Id */: bigint&lt;br/&gt; user_id  /* 用户ID */: varchar(256)&lt;br/&gt; survey_id  /* 问卷Id */: bigint&lt;br/&gt; answer_list  /* 反馈汇总 */: text&lt;/p&gt;&lt;hr size=&quot;1&quot;/&gt;&lt;p style=&quot;margin:0 0 0 4px;line-height:1.6;&quot;&gt; id  /* 主键 */: bigint&lt;/p&gt;" style="verticalAlign=top;align=left;overflow=fill;fontSize=14;fontFamily=Helvetica;html=1;rounded=0;shadow=0;comic=0;labelBackgroundColor=none;strokeWidth=1;" parent="1" vertex="1">
          <mxGeometry x="1222" y="3776" width="245" height="256" as="geometry" />
        </mxCell>
        <mxCell id="9cYoRjUQ95D6RNDLffrj-2" value="&lt;p style=&quot;margin:0px;margin-top:4px;text-align:center;&quot;&gt;&lt;b&gt;t_camp_user_study_record&lt;/b&gt;&lt;/p&gt;&lt;hr size=&quot;1&quot;/&gt;&lt;p style=&quot;margin:0 0 0 4px;line-height:1.6;&quot;&gt; created_time  /* 创建时间 */: datetime&lt;br/&gt; updated_time  /* 更新时间 */: datetime&lt;br/&gt; created_by  /* 创建者 */: varchar(256)&lt;br/&gt; updated_by  /* 更新者 */: varchar(256)&lt;br/&gt; score  /* 分值 */: bigint&lt;br/&gt; record  /* 记录 */: varchar(4000)&lt;br/&gt; type  /* 类型 */: varchar(256)&lt;br/&gt; userid  /* 用户id */: varchar(256)&lt;br/&gt; class_id  /* 班级id */: bigint&lt;br/&gt; training_user_id  /* 营员表id */: bigint&lt;/p&gt;&lt;hr size=&quot;1&quot;/&gt;&lt;p style=&quot;margin:0 0 0 4px;line-height:1.6;&quot;&gt; id  /* 主键 */: bigint&lt;/p&gt;" style="verticalAlign=top;align=left;overflow=fill;fontSize=14;fontFamily=Helvetica;html=1;rounded=0;shadow=0;comic=0;labelBackgroundColor=none;strokeWidth=1;" parent="1" vertex="1">
          <mxGeometry x="1351.5" y="2432" width="245" height="304" as="geometry" />
        </mxCell>
        <mxCell id="9cYoRjUQ95D6RNDLffrj-3" value="&lt;p style=&quot;margin:0px;margin-top:4px;text-align:center;&quot;&gt;&lt;b&gt;t_class_teacher&lt;/b&gt;&lt;/p&gt;&lt;hr size=&quot;1&quot;/&gt;&lt;p style=&quot;margin:0 0 0 4px;line-height:1.6;&quot;&gt; JOB_NO  /* 工号 */: varchar(32)&lt;br/&gt; NAME  /* 姓名 */: varchar(255)&lt;br/&gt; DEPT_ID  /* 部门ID */: varchar(32)&lt;br/&gt; DEPT_NO  /* 工号 */: varchar(32)&lt;br/&gt; DEPT_NAME  /* 部门名称 */: varchar(32)&lt;br/&gt; TOTAL_CLASS_NUM  /* 总带班次数 */: double&lt;br/&gt; TOTAL_AVERAGE_SCORE  /* 总带班平均 */: double&lt;br/&gt; attribute1  /* 备用字段 */: varchar(64)&lt;br/&gt; attribute2  /* 备用字段 */: varchar(64)&lt;br/&gt; attribute3  /* 备用字段 */: varchar(64)&lt;br/&gt; attribute4  /* 备用字段 */: varchar(64)&lt;br/&gt; attribute5  /* 备用字段 */: varchar(64)&lt;br/&gt; attribute6  /* 备用字段 */: varchar(64)&lt;br/&gt; attribute7  /* 备用字段 */: varchar(64)&lt;br/&gt; attribute8  /* 备用字段 */: varchar(64)&lt;br/&gt; attribute9  /* 备用字段 */: varchar(64)&lt;br/&gt; attribute10  /* 备用字段 */: varchar(64)&lt;br/&gt; STATUS  /* 状态，默认ok */: varchar(32)&lt;br/&gt; created_By  /* 创建人 */: varchar(32)&lt;br/&gt; created_Time: datetime&lt;br/&gt; updated_By: varchar(32)&lt;br/&gt; updated_Time: datetime&lt;br/&gt; created_Uid: varchar(32)&lt;br/&gt; updated_Uid: varchar(32)&lt;br/&gt; IS_DELETED  /* 是否删除，0未删除，1已删除 */: int&lt;br/&gt; phone  /* 手机号 */: varchar(256)&lt;/p&gt;&lt;hr size=&quot;1&quot;/&gt;&lt;p style=&quot;margin:0 0 0 4px;line-height:1.6;&quot;&gt; ID: bigint&lt;/p&gt;" style="verticalAlign=top;align=left;overflow=fill;fontSize=14;fontFamily=Helvetica;html=1;rounded=0;shadow=0;comic=0;labelBackgroundColor=none;strokeWidth=1;" parent="1" vertex="1">
          <mxGeometry x="1260" y="6130" width="314" height="688" as="geometry" />
        </mxCell>
        <mxCell id="9cYoRjUQ95D6RNDLffrj-4" value="&lt;p style=&quot;margin:0px;margin-top:4px;text-align:center;&quot;&gt;&lt;b&gt;t_class_teacher_history&lt;/b&gt;&lt;/p&gt;&lt;hr size=&quot;1&quot;/&gt;&lt;p style=&quot;margin:0 0 0 4px;line-height:1.6;&quot;&gt; CLASS_TEACHER_ID  /* 班主任ID */: varchar(32)&lt;br/&gt; JOB_NO  /* 班主任工号 */: varchar(32)&lt;br/&gt; NAME  /* 班主任姓名 */: varchar(255)&lt;br/&gt; DEPT_ID  /* 部门ID */: varchar(32)&lt;br/&gt; DEPT_NO  /* 工号 */: varchar(32)&lt;br/&gt; DEPT_NAME  /* 部门名称 */: varchar(32)&lt;br/&gt; begin_Time  /* 开营时间 */: datetime&lt;br/&gt; end_Time  /* 计划关营时间 */: datetime&lt;br/&gt; PASS_RATE  /* 学员通过率 */: double&lt;br/&gt; attribute1  /* 备用字段 */: varchar(64)&lt;br/&gt; attribute2  /* 备用字段 */: varchar(64)&lt;br/&gt; attribute3  /* 备用字段 */: varchar(64)&lt;br/&gt; attribute4  /* 备用字段 */: varchar(64)&lt;br/&gt; attribute5  /* 备用字段 */: varchar(64)&lt;br/&gt; attribute6  /* 备用字段 */: varchar(64)&lt;br/&gt; attribute7  /* 备用字段 */: varchar(64)&lt;br/&gt; attribute8  /* 备用字段 */: varchar(64)&lt;br/&gt; attribute9  /* 备用字段 */: varchar(64)&lt;br/&gt; attribute10  /* 备用字段 */: varchar(64)&lt;br/&gt; KEY_ID: varchar(64)&lt;br/&gt; STATUS  /* 状态，默认ok */: varchar(32)&lt;br/&gt; created_By  /* 创建人 */: varchar(32)&lt;br/&gt; created_Time: datetime&lt;br/&gt; updated_By: varchar(32)&lt;br/&gt; updated_Time: datetime&lt;br/&gt; created_Uid: varchar(32)&lt;br/&gt; updated_Uid: varchar(32)&lt;br/&gt; IS_DELETED  /* 是否删除，0未删除，1已删除 */: int&lt;br/&gt; score  /* 班主任评分 */: decimal(31,2)&lt;br/&gt; phone  /* 手机号 */: varchar(256)&lt;/p&gt;&lt;hr size=&quot;1&quot;/&gt;&lt;p style=&quot;margin:0 0 0 4px;line-height:1.6;&quot;&gt; ID: bigint&lt;/p&gt;" style="verticalAlign=top;align=left;overflow=fill;fontSize=14;fontFamily=Helvetica;html=1;rounded=0;shadow=0;comic=0;labelBackgroundColor=none;strokeWidth=1;" parent="1" vertex="1">
          <mxGeometry x="1290" y="4400" width="296" height="784" as="geometry" />
        </mxCell>
        <mxCell id="9cYoRjUQ95D6RNDLffrj-5" value="&lt;p style=&quot;margin:0px;margin-top:4px;text-align:center;&quot;&gt;&lt;b&gt;t_head_teacher  /* 班主任 */&lt;/b&gt;&lt;/p&gt;&lt;hr size=&quot;1&quot;/&gt;&lt;p style=&quot;margin:0 0 0 4px;line-height:1.6;&quot;&gt; created_time  /* 创建时间 */: datetime&lt;br/&gt; updated_time  /* 更新时间 */: datetime&lt;br/&gt; created_by  /* 创建者 */: varchar(256)&lt;br/&gt; updated_by  /* 更新者 */: varchar(256)&lt;br/&gt; job_no: varchar(256)&lt;br/&gt; name: varchar(256)&lt;/p&gt;&lt;hr size=&quot;1&quot;/&gt;&lt;p style=&quot;margin:0 0 0 4px;line-height:1.6;&quot;&gt; id  /* 主键 */: bigint&lt;/p&gt;" style="verticalAlign=top;align=left;overflow=fill;fontSize=14;fontFamily=Helvetica;html=1;rounded=0;shadow=0;comic=0;labelBackgroundColor=none;strokeWidth=1;" parent="1" vertex="1">
          <mxGeometry x="78.5" y="5204" width="245" height="208" as="geometry" />
        </mxCell>
        <mxCell id="9cYoRjUQ95D6RNDLffrj-6" value="&lt;p style=&quot;margin:0px;margin-top:4px;text-align:center;&quot;&gt;&lt;b&gt;t_level_training_item  /* 关卡包含的课程列表 */&lt;/b&gt;&lt;/p&gt;&lt;hr size=&quot;1&quot;/&gt;&lt;p style=&quot;margin:0 0 0 4px;line-height:1.6;&quot;&gt; created_time  /* 创建时间 */: datetime&lt;br/&gt; updated_time  /* 更新时间 */: datetime&lt;br/&gt; created_by  /* 创建者 */: varchar(256)&lt;br/&gt; updated_by  /* 更新者 */: varchar(256)&lt;br/&gt; level_id  /* 关卡ID */: bigint&lt;br/&gt; training_id  /* 课程ID */: bigint&lt;br/&gt; training_name  /* 课程名称 */: varchar(256)&lt;br/&gt; training_code  /* 课程编码 */: varchar(256)&lt;br/&gt; class_id  /* 班级ID */: bigint&lt;br/&gt; class_name  /* 班级名称 */: varchar(256)&lt;/p&gt;&lt;hr size=&quot;1&quot;/&gt;&lt;p style=&quot;margin:0 0 0 4px;line-height:1.6;&quot;&gt; id  /* 主键 */: bigint&lt;/p&gt;" style="verticalAlign=top;align=left;overflow=fill;fontSize=14;fontFamily=Helvetica;html=1;rounded=0;shadow=0;comic=0;labelBackgroundColor=none;strokeWidth=1;" parent="1" vertex="1">
          <mxGeometry x="1315" y="7424" width="318" height="304" as="geometry" />
        </mxCell>
        <mxCell id="9cYoRjUQ95D6RNDLffrj-7" value="&lt;p style=&quot;margin:0px;margin-top:4px;text-align:center;&quot;&gt;&lt;b&gt;t_login_record&lt;/b&gt;&lt;/p&gt;&lt;hr size=&quot;1&quot;/&gt;&lt;p style=&quot;margin:0 0 0 4px;line-height:1.6;&quot;&gt; created_time  /* 创建时间 */: datetime&lt;br/&gt; updated_time  /* 更新时间 */: datetime&lt;br/&gt; created_by  /* 创建者 */: varchar(256)&lt;br/&gt; updated_by  /* 更新者 */: varchar(256)&lt;br/&gt; user_id  /* 用户ID */: varchar(256)&lt;br/&gt; month  /* 月份 */: varchar(256)&lt;br/&gt; year  /* 年 */: varchar(256)&lt;br/&gt; day  /* 日 */: varchar(256)&lt;/p&gt;&lt;hr size=&quot;1&quot;/&gt;&lt;p style=&quot;margin:0 0 0 4px;line-height:1.6;&quot;&gt; id  /* 主键 */: bigint&lt;/p&gt;" style="verticalAlign=top;align=left;overflow=fill;fontSize=14;fontFamily=Helvetica;html=1;rounded=0;shadow=0;comic=0;labelBackgroundColor=none;strokeWidth=1;" parent="1" vertex="1">
          <mxGeometry x="934.5" y="980" width="245" height="256" as="geometry" />
        </mxCell>
        <mxCell id="9cYoRjUQ95D6RNDLffrj-8" value="&lt;p style=&quot;margin:0px;margin-top:4px;text-align:center;&quot;&gt;&lt;b&gt;t_online_test_info&lt;/b&gt;&lt;/p&gt;&lt;hr size=&quot;1&quot;/&gt;&lt;p style=&quot;margin:0 0 0 4px;line-height:1.6;&quot;&gt; created_time  /* 创建时间 */: datetime&lt;br/&gt; updated_time  /* 更新时间 */: datetime&lt;br/&gt; created_by  /* 创建者 */: varchar(256)&lt;br/&gt; updated_by  /* 更新者 */: varchar(256)&lt;br/&gt; name  /* 名称 */: varchar(256)&lt;br/&gt; status  /* 考试状态 */: varchar(256)&lt;br/&gt; score  /* 总分 */: decimal(31,2)&lt;/p&gt;&lt;hr size=&quot;1&quot;/&gt;&lt;p style=&quot;margin:0 0 0 4px;line-height:1.6;&quot;&gt; id  /* 主键 */: bigint&lt;/p&gt;" style="verticalAlign=top;align=left;overflow=fill;fontSize=14;fontFamily=Helvetica;html=1;rounded=0;shadow=0;comic=0;labelBackgroundColor=none;strokeWidth=1;" parent="1" vertex="1">
          <mxGeometry x="468.5" y="3428" width="245" height="232" as="geometry" />
        </mxCell>
        <mxCell id="9cYoRjUQ95D6RNDLffrj-9" value="&lt;p style=&quot;margin:0px;margin-top:4px;text-align:center;&quot;&gt;&lt;b&gt;t_project_exam_score  /* 用户项目考试分数 */&lt;/b&gt;&lt;/p&gt;&lt;hr size=&quot;1&quot;/&gt;&lt;p style=&quot;margin:0 0 0 4px;line-height:1.6;&quot;&gt; created_time  /* 创建时间 */: datetime&lt;br/&gt; updated_time  /* 更新时间 */: datetime&lt;br/&gt; created_by  /* 创建者 */: varchar(256)&lt;br/&gt; updated_by  /* 更新者 */: varchar(256)&lt;br/&gt; user_id: varchar(256)&lt;br/&gt; paper_id_id: bigint&lt;br/&gt; class_id: bigint&lt;br/&gt; score  /* 考试分数 */: decimal(31,2)&lt;/p&gt;&lt;hr size=&quot;1&quot;/&gt;&lt;p style=&quot;margin:0 0 0 4px;line-height:1.6;&quot;&gt; id  /* 主键 */: bigint&lt;/p&gt;" style="verticalAlign=top;align=left;overflow=fill;fontSize=14;fontFamily=Helvetica;html=1;rounded=0;shadow=0;comic=0;labelBackgroundColor=none;strokeWidth=1;" parent="1" vertex="1">
          <mxGeometry x="435.5" y="6272" width="311" height="256" as="geometry" />
        </mxCell>
        <mxCell id="9cYoRjUQ95D6RNDLffrj-10" value="&lt;p style=&quot;margin:0px;margin-top:4px;text-align:center;&quot;&gt;&lt;b&gt;t_project_homework_score  /* 用户项目课程分数 */&lt;/b&gt;&lt;/p&gt;&lt;hr size=&quot;1&quot;/&gt;&lt;p style=&quot;margin:0 0 0 4px;line-height:1.6;&quot;&gt; created_time  /* 创建时间 */: datetime&lt;br/&gt; updated_time  /* 更新时间 */: datetime&lt;br/&gt; created_by  /* 创建者 */: varchar(256)&lt;br/&gt; updated_by  /* 更新者 */: varchar(256)&lt;br/&gt; user_id: varchar(256)&lt;br/&gt; homework_id: bigint&lt;br/&gt; class_id: bigint&lt;br/&gt; score  /* 作业分数 */: decimal(31,2)&lt;/p&gt;&lt;hr size=&quot;1&quot;/&gt;&lt;p style=&quot;margin:0 0 0 4px;line-height:1.6;&quot;&gt; id  /* 主键 */: bigint&lt;/p&gt;" style="verticalAlign=top;align=left;overflow=fill;fontSize=14;fontFamily=Helvetica;html=1;rounded=0;shadow=0;comic=0;labelBackgroundColor=none;strokeWidth=1;" parent="1" vertex="1">
          <mxGeometry x="882.5" y="3428" width="349" height="256" as="geometry" />
        </mxCell>
        <mxCell id="9cYoRjUQ95D6RNDLffrj-11" value="&lt;p style=&quot;margin:0px;margin-top:4px;text-align:center;&quot;&gt;&lt;b&gt;t_project_train_score  /* 用户项目课程分数 */&lt;/b&gt;&lt;/p&gt;&lt;hr size=&quot;1&quot;/&gt;&lt;p style=&quot;margin:0 0 0 4px;line-height:1.6;&quot;&gt; created_time  /* 创建时间 */: datetime&lt;br/&gt; updated_time  /* 更新时间 */: datetime&lt;br/&gt; created_by  /* 创建者 */: varchar(256)&lt;br/&gt; updated_by  /* 更新者 */: varchar(256)&lt;br/&gt; user_id: varchar(256)&lt;br/&gt; train_id: bigint&lt;br/&gt; class_id: bigint&lt;br/&gt; train_score  /* 上课分数 */: decimal(31,2)&lt;br/&gt; exam_score  /* 考试分数 */: decimal(31,2)&lt;br/&gt; homework_score  /* 作业分数 */: decimal(31,2)&lt;/p&gt;&lt;hr size=&quot;1&quot;/&gt;&lt;p style=&quot;margin:0 0 0 4px;line-height:1.6;&quot;&gt; id  /* 主键 */: bigint&lt;/p&gt;" style="verticalAlign=top;align=left;overflow=fill;fontSize=14;fontFamily=Helvetica;html=1;rounded=0;shadow=0;comic=0;labelBackgroundColor=none;strokeWidth=1;" parent="1" vertex="1">
          <mxGeometry x="438.5" y="6980" width="305" height="304" as="geometry" />
        </mxCell>
        <mxCell id="9cYoRjUQ95D6RNDLffrj-12" value="&lt;p style=&quot;margin:0px;margin-top:4px;text-align:center;&quot;&gt;&lt;b&gt;t_question_score&lt;/b&gt;&lt;/p&gt;&lt;hr size=&quot;1&quot;/&gt;&lt;p style=&quot;margin:0 0 0 4px;line-height:1.6;&quot;&gt; created_time  /* 创建时间 */: datetime&lt;br/&gt; updated_time  /* 更新时间 */: datetime&lt;br/&gt; created_by  /* 创建者 */: varchar(256)&lt;br/&gt; updated_by  /* 更新者 */: varchar(256)&lt;br/&gt; exam_id: bigint&lt;br/&gt; question_id: bigint&lt;br/&gt; score: decimal(31,2)&lt;br/&gt; answer: varchar(256)&lt;br/&gt; type: varchar(256)&lt;/p&gt;&lt;hr size=&quot;1&quot;/&gt;&lt;p style=&quot;margin:0 0 0 4px;line-height:1.6;&quot;&gt; id  /* 主键 */: bigint&lt;/p&gt;" style="verticalAlign=top;align=left;overflow=fill;fontSize=14;fontFamily=Helvetica;html=1;rounded=0;shadow=0;comic=0;labelBackgroundColor=none;strokeWidth=1;" parent="1" vertex="1">
          <mxGeometry x="78.5" y="20" width="245" height="280" as="geometry" />
        </mxCell>
        <mxCell id="9cYoRjUQ95D6RNDLffrj-13" value="&lt;p style=&quot;margin:0px;margin-top:4px;text-align:center;&quot;&gt;&lt;b&gt;t_questionscore&lt;/b&gt;&lt;/p&gt;&lt;hr size=&quot;1&quot;/&gt;&lt;p style=&quot;margin:0 0 0 4px;line-height:1.6;&quot;&gt; created_time  /* 创建时间 */: datetime&lt;br/&gt; updated_time  /* 更新时间 */: datetime&lt;br/&gt; created_by  /* 创建者 */: varchar(256)&lt;br/&gt; updated_by  /* 更新者 */: varchar(256)&lt;br/&gt; exam_id  /* 考试id */: bigint&lt;br/&gt; question_id  /* 问题id */: bigint&lt;br/&gt; score  /* 当时做题的分数 */: decimal(31,2)&lt;br/&gt; answer  /* 做题选的答案 */: varchar(256)&lt;br/&gt; type  /* 题目类型 */: varchar(256)&lt;/p&gt;&lt;hr size=&quot;1&quot;/&gt;&lt;p style=&quot;margin:0 0 0 4px;line-height:1.6;&quot;&gt; id  /* 主键 */: bigint&lt;/p&gt;" style="verticalAlign=top;align=left;overflow=fill;fontSize=14;fontFamily=Helvetica;html=1;rounded=0;shadow=0;comic=0;labelBackgroundColor=none;strokeWidth=1;" parent="1" vertex="1">
          <mxGeometry x="930.5" y="4400" width="253" height="280" as="geometry" />
        </mxCell>
        <mxCell id="9cYoRjUQ95D6RNDLffrj-14" value="&lt;p style=&quot;margin:0px;margin-top:4px;text-align:center;&quot;&gt;&lt;b&gt;t_stu_comment  /* 用户评论 */&lt;/b&gt;&lt;/p&gt;&lt;hr size=&quot;1&quot;/&gt;&lt;p style=&quot;margin:0 0 0 4px;line-height:1.6;&quot;&gt; created_time  /* 创建时间 */: datetime&lt;br/&gt; updated_time  /* 更新时间 */: datetime&lt;br/&gt; created_by  /* 创建者 */: varchar(256)&lt;br/&gt; updated_by  /* 更新者 */: varchar(256)&lt;br/&gt; user_i_d: varchar(256)&lt;br/&gt; class_id  /* 班级Id */: bigint&lt;br/&gt; connect: varchar(256)&lt;br/&gt; icon  /* 头像 */: mediumtext&lt;br/&gt; departmentpath  /* 完整部门路径 */: varchar(256)&lt;br/&gt; stars  /* 评分 */: bigint&lt;/p&gt;&lt;hr size=&quot;1&quot;/&gt;&lt;p style=&quot;margin:0 0 0 4px;line-height:1.6;&quot;&gt; id  /* 主键 */: bigint&lt;/p&gt;" style="verticalAlign=top;align=left;overflow=fill;fontSize=14;fontFamily=Helvetica;html=1;rounded=0;shadow=0;comic=0;labelBackgroundColor=none;strokeWidth=1;" parent="1" vertex="1">
          <mxGeometry x="50" y="344" width="302" height="304" as="geometry" />
        </mxCell>
        <mxCell id="9cYoRjUQ95D6RNDLffrj-15" value="&lt;p style=&quot;margin:0px;margin-top:4px;text-align:center;&quot;&gt;&lt;b&gt;t_student_exam_record&lt;/b&gt;&lt;/p&gt;&lt;hr size=&quot;1&quot;/&gt;&lt;p style=&quot;margin:0 0 0 4px;line-height:1.6;&quot;&gt; created_time  /* 创建时间 */: datetime&lt;br/&gt; updated_time  /* 更新时间 */: datetime&lt;br/&gt; created_by  /* 创建者 */: varchar(256)&lt;br/&gt; updated_by  /* 更新者 */: varchar(256)&lt;br/&gt; lession_id  /* 课程id */: bigint&lt;br/&gt; paper_id  /* 试卷id */: bigint&lt;br/&gt; stu_id  /* 学员id */: varchar(256)&lt;br/&gt; status  /* 考试状态 */: varchar(256)&lt;br/&gt; publish_status  /* 答案公布状态 */: varchar(256)&lt;br/&gt; score  /* 总分 */: decimal(31,2)&lt;br/&gt; training_paper_id  /* 关联考试试卷Id */: bigint&lt;br/&gt; class_id: bigint&lt;br/&gt; is_pass  /* 是否通过 */: tinyint(1)&lt;br/&gt; user_time  /* 考试用时 */: bigint&lt;br/&gt; single_list  /* 单选题集合 */: text&lt;br/&gt; multiple_list  /* 多选题集合 */: text&lt;br/&gt; is_true_list  /* 判断题集合 */: text&lt;br/&gt; sorce_publish_status: varchar(256)&lt;/p&gt;&lt;hr size=&quot;1&quot;/&gt;&lt;p style=&quot;margin:0 0 0 4px;line-height:1.6;&quot;&gt; id  /* 主键 */: bigint&lt;/p&gt;" style="verticalAlign=top;align=left;overflow=fill;fontSize=14;fontFamily=Helvetica;html=1;rounded=0;shadow=0;comic=0;labelBackgroundColor=none;strokeWidth=1;" parent="1" vertex="1">
          <mxGeometry x="56" y="2432" width="290" height="496" as="geometry" />
        </mxCell>
        <mxCell id="9cYoRjUQ95D6RNDLffrj-16" value="&lt;p style=&quot;margin:0px;margin-top:4px;text-align:center;&quot;&gt;&lt;b&gt;t_student_homework_record&lt;/b&gt;&lt;/p&gt;&lt;hr size=&quot;1&quot;/&gt;&lt;p style=&quot;margin:0 0 0 4px;line-height:1.6;&quot;&gt; created_time  /* 创建时间 */: datetime&lt;br/&gt; updated_time  /* 更新时间 */: datetime&lt;br/&gt; created_by  /* 创建者 */: varchar(256)&lt;br/&gt; updated_by  /* 更新者 */: varchar(256)&lt;br/&gt; class_id  /* 班级Id */: bigint&lt;br/&gt; user_id  /* 用户ID */: varchar(256)&lt;br/&gt; homework_id  /* 章节Id */: bigint&lt;br/&gt; title  /* 作业标题 */: varchar(256)&lt;br/&gt; content  /* 作业说明 */: varchar(4000)&lt;br/&gt; files  /* 作业附件 */: varchar(4000)&lt;br/&gt; homework_status: varchar(256)&lt;br/&gt; ipme  /* 评阅人 */: varchar(256)&lt;br/&gt; ipme_result  /* 评阅结果 */: varchar(256)&lt;br/&gt; action  /* 动作 */: varchar(256)&lt;br/&gt; score  /* 评分 */: varchar(256)&lt;br/&gt; remark  /* 评语 */: varchar(256)&lt;br/&gt; director  /* 直系主管id */: varchar(256)&lt;br/&gt; head_teacher  /* 班主任userid */: varchar(256)&lt;br/&gt; pre_ipml  /* 当前评阅人 */: varchar(256)&lt;/p&gt;&lt;hr size=&quot;1&quot;/&gt;&lt;p style=&quot;margin:0 0 0 4px;line-height:1.6;&quot;&gt; id  /* 主键 */: bigint&lt;/p&gt;" style="verticalAlign=top;align=left;overflow=fill;fontSize=14;fontFamily=Helvetica;html=1;rounded=0;shadow=0;comic=0;labelBackgroundColor=none;strokeWidth=1;" parent="1" vertex="1">
          <mxGeometry x="450" y="4400" width="282" height="520" as="geometry" />
        </mxCell>
        <mxCell id="9cYoRjUQ95D6RNDLffrj-17" value="&lt;p style=&quot;margin:0px;margin-top:4px;text-align:center;&quot;&gt;&lt;b&gt;t_student_sign_record&lt;/b&gt;&lt;/p&gt;&lt;hr size=&quot;1&quot;/&gt;&lt;p style=&quot;margin:0 0 0 4px;line-height:1.6;&quot;&gt; created_time  /* 创建时间 */: datetime&lt;br/&gt; updated_time  /* 更新时间 */: datetime&lt;br/&gt; created_by  /* 创建者 */: varchar(256)&lt;br/&gt; updated_by  /* 更新者 */: varchar(256)&lt;br/&gt; classid  /* 课程id */: bigint&lt;br/&gt; userid  /* 用户id */: varchar(256)&lt;/p&gt;&lt;hr size=&quot;1&quot;/&gt;&lt;p style=&quot;margin:0 0 0 4px;line-height:1.6;&quot;&gt; id  /* 主键 */: bigint&lt;/p&gt;" style="verticalAlign=top;align=left;overflow=fill;fontSize=14;fontFamily=Helvetica;html=1;rounded=0;shadow=0;comic=0;labelBackgroundColor=none;strokeWidth=1;" parent="1" vertex="1">
          <mxGeometry x="468.5" y="344" width="245" height="208" as="geometry" />
        </mxCell>
        <mxCell id="9cYoRjUQ95D6RNDLffrj-18" value="&lt;p style=&quot;margin:0px;margin-top:4px;text-align:center;&quot;&gt;&lt;b&gt;t_student_study_record&lt;/b&gt;&lt;/p&gt;&lt;hr size=&quot;1&quot;/&gt;&lt;p style=&quot;margin:0 0 0 4px;line-height:1.6;&quot;&gt; created_time  /* 创建时间 */: datetime&lt;br/&gt; updated_time  /* 更新时间 */: datetime&lt;br/&gt; created_by  /* 创建者 */: varchar(256)&lt;br/&gt; updated_by  /* 更新者 */: varchar(256)&lt;br/&gt; class_id  /* 班级Id */: bigint&lt;br/&gt; user_id  /* 用户ID */: varchar(256)&lt;br/&gt; chapter_id  /* 章节Id */: bigint&lt;br/&gt; studytime  /* 学习时间（秒） */: bigint&lt;br/&gt; isdone  /* 是否完成 */: tinyint(1)&lt;/p&gt;&lt;hr size=&quot;1&quot;/&gt;&lt;p style=&quot;margin:0 0 0 4px;line-height:1.6;&quot;&gt; id  /* 主键 */: bigint&lt;/p&gt;" style="verticalAlign=top;align=left;overflow=fill;fontSize=14;fontFamily=Helvetica;html=1;rounded=0;shadow=0;comic=0;labelBackgroundColor=none;strokeWidth=1;" parent="1" vertex="1">
          <mxGeometry x="1351.5" y="6980" width="245" height="280" as="geometry" />
        </mxCell>
        <mxCell id="9cYoRjUQ95D6RNDLffrj-19" value="&lt;p style=&quot;margin:0px;margin-top:4px;text-align:center;&quot;&gt;&lt;b&gt;t_student_survey_record&lt;/b&gt;&lt;/p&gt;&lt;hr size=&quot;1&quot;/&gt;&lt;p style=&quot;margin:0 0 0 4px;line-height:1.6;&quot;&gt; created_time  /* 创建时间 */: datetime&lt;br/&gt; updated_time  /* 更新时间 */: datetime&lt;br/&gt; created_by  /* 创建者 */: varchar(256)&lt;br/&gt; updated_by  /* 更新者 */: varchar(256)&lt;br/&gt; class_id  /* 班级Id */: bigint&lt;br/&gt; user_id  /* 用户ID */: varchar(256)&lt;br/&gt; survey_id  /* 问卷Id */: bigint&lt;br/&gt; answer_list  /* 反馈汇总 */: text&lt;/p&gt;&lt;hr size=&quot;1&quot;/&gt;&lt;p style=&quot;margin:0 0 0 4px;line-height:1.6;&quot;&gt; id  /* 主键 */: bigint&lt;/p&gt;" style="verticalAlign=top;align=left;overflow=fill;fontSize=14;fontFamily=Helvetica;html=1;rounded=0;shadow=0;comic=0;labelBackgroundColor=none;strokeWidth=1;" parent="1" vertex="1">
          <mxGeometry x="900" y="3770" width="245" height="256" as="geometry" />
        </mxCell>
        <mxCell id="9cYoRjUQ95D6RNDLffrj-20" value="&lt;p style=&quot;margin:0px;margin-top:4px;text-align:center;&quot;&gt;&lt;b&gt;t_survey_answer_statistics&lt;/b&gt;&lt;/p&gt;&lt;hr size=&quot;1&quot;/&gt;&lt;p style=&quot;margin:0 0 0 4px;line-height:1.6;&quot;&gt; created_time  /* 创建时间 */: datetime&lt;br/&gt; updated_time  /* 更新时间 */: datetime&lt;br/&gt; created_by  /* 创建者 */: varchar(256)&lt;br/&gt; updated_by  /* 更新者 */: varchar(256)&lt;br/&gt; userid  /* 用户id */: varchar(256)&lt;br/&gt; survey_question_id: bigint&lt;br/&gt; answer  /* 填写答案 */: varchar(256)&lt;/p&gt;&lt;hr size=&quot;1&quot;/&gt;&lt;p style=&quot;margin:0 0 0 4px;line-height:1.6;&quot;&gt; id  /* 主键 */: bigint&lt;/p&gt;" style="verticalAlign=top;align=left;overflow=fill;fontSize=14;fontFamily=Helvetica;html=1;rounded=0;shadow=0;comic=0;labelBackgroundColor=none;strokeWidth=1;" parent="1" vertex="1">
          <mxGeometry x="900" y="4060" width="245" height="232" as="geometry" />
        </mxCell>
        <mxCell id="9cYoRjUQ95D6RNDLffrj-21" value="&lt;p style=&quot;margin:0px;margin-top:4px;text-align:center;&quot;&gt;&lt;b&gt;t_sys_auto_code  /* 系统内统一业务编码自动自增编码 */&lt;/b&gt;&lt;/p&gt;&lt;hr size=&quot;1&quot;/&gt;&lt;p style=&quot;margin:0 0 0 4px;line-height:1.6;&quot;&gt; created_time  /* 创建时间 */: datetime&lt;br/&gt; updated_time  /* 更新时间 */: datetime&lt;br/&gt; created_by  /* 创建者 */: varchar(256)&lt;br/&gt; updated_by  /* 更新者 */: varchar(256)&lt;br/&gt; biz_code  /* 业务码 */: varchar(256)&lt;br/&gt; index_no  /* 序号，业务内序列唯一 */: bigint&lt;br/&gt; code  /* 最终生成的编码 */: varchar(256)&lt;/p&gt;&lt;hr size=&quot;1&quot;/&gt;&lt;p style=&quot;margin:0 0 0 4px;line-height:1.6;&quot;&gt; id  /* 主键 */: bigint&lt;/p&gt;" style="verticalAlign=top;align=left;overflow=fill;fontSize=14;fontFamily=Helvetica;html=1;rounded=0;shadow=0;comic=0;labelBackgroundColor=none;strokeWidth=1;" parent="1" vertex="1">
          <mxGeometry x="27.5" y="7424" width="347" height="232" as="geometry" />
        </mxCell>
        <mxCell id="9cYoRjUQ95D6RNDLffrj-22" value="&lt;p style=&quot;margin:0px;margin-top:4px;text-align:center;&quot;&gt;&lt;b&gt;t_sys_config&lt;/b&gt;&lt;/p&gt;&lt;hr size=&quot;1&quot;/&gt;&lt;p style=&quot;margin:0 0 0 4px;line-height:1.6;&quot;&gt; code  /* 配置项标识 */: varchar(256)&lt;br/&gt; config_value  /* 配置内容 */: varchar(4000)&lt;br/&gt; created_time  /* 创建时间 */: datetime&lt;br/&gt; updated_time  /* 更新时间 */: datetime&lt;br/&gt; created_by  /* 创建者 */: varchar(256)&lt;br/&gt; updated_by  /* 更新者 */: varchar(256)&lt;/p&gt;&lt;hr size=&quot;1&quot;/&gt;&lt;p style=&quot;margin:0 0 0 4px;line-height:1.6;&quot;&gt; id  /* 主键 */: bigint&lt;/p&gt;" style="verticalAlign=top;align=left;overflow=fill;fontSize=14;fontFamily=Helvetica;html=1;rounded=0;shadow=0;comic=0;labelBackgroundColor=none;strokeWidth=1;" parent="1" vertex="1">
          <mxGeometry x="924" y="20" width="266" height="208" as="geometry" />
        </mxCell>
        <mxCell id="9cYoRjUQ95D6RNDLffrj-23" value="&lt;p style=&quot;margin:0px;margin-top:4px;text-align:center;&quot;&gt;&lt;b&gt;t_teacher_info&lt;/b&gt;&lt;/p&gt;&lt;hr size=&quot;1&quot;/&gt;&lt;p style=&quot;margin:0 0 0 4px;line-height:1.6;&quot;&gt; created_time  /* 创建时间 */: datetime&lt;br/&gt; updated_time  /* 更新时间 */: datetime&lt;br/&gt; created_by  /* 创建者 */: varchar(256)&lt;br/&gt; updated_by  /* 更新者 */: varchar(256)&lt;br/&gt; name  /* 姓名 */: varchar(256)&lt;br/&gt; code  /* 工号 */: varchar(256)&lt;br/&gt; department  /* 所属部门 */: varchar(256)&lt;br/&gt; phone  /* 手机号码 */: varchar(4000)&lt;br/&gt; pic  /* 讲师照片 */: varchar(4000)&lt;br/&gt; title  /* 讲师头衔 */: varchar(256)&lt;br/&gt; note  /* 讲师简介 */: varchar(4000)&lt;br/&gt; type  /* 教师类型 */: varchar(256)&lt;br/&gt; card_type  /* 证件类型 */: varchar(256)&lt;br/&gt; card_id  /* 证件号 */: varchar(256)&lt;br/&gt; department_id  /* 所属部门id */: bigint&lt;/p&gt;&lt;hr size=&quot;1&quot;/&gt;&lt;p style=&quot;margin:0 0 0 4px;line-height:1.6;&quot;&gt; id  /* 主键 */: bigint&lt;/p&gt;" style="verticalAlign=top;align=left;overflow=fill;fontSize=14;fontFamily=Helvetica;html=1;rounded=0;shadow=0;comic=0;labelBackgroundColor=none;strokeWidth=1;" parent="1" vertex="1">
          <mxGeometry x="930" y="6980" width="254" height="424" as="geometry" />
        </mxCell>
        <mxCell id="9cYoRjUQ95D6RNDLffrj-24" value="&lt;p style=&quot;margin:0px;margin-top:4px;text-align:center;&quot;&gt;&lt;b&gt;t_thematic_tags  /* 专题标签 */&lt;/b&gt;&lt;/p&gt;&lt;hr size=&quot;1&quot;/&gt;&lt;p style=&quot;margin:0 0 0 4px;line-height:1.6;&quot;&gt; created_time  /* 创建时间 */: datetime&lt;br/&gt; updated_time  /* 更新时间 */: datetime&lt;br/&gt; created_by  /* 创建者 */: varchar(256)&lt;br/&gt; updated_by  /* 更新者 */: varchar(256)&lt;br/&gt; tag_id  /* 标签Id */: varchar(256)&lt;br/&gt; tag_name  /* 标签名称 */: varchar(256)&lt;br/&gt; tag_status  /* 标签状态 */: varchar(256)&lt;br/&gt; thematic_title  /* 专题标题 */: varchar(256)&lt;br/&gt; picture  /* 专题图标 */: varchar(4000)&lt;br/&gt; remark  /* 备注 */: varchar(4000)&lt;br/&gt; label  /* 关联课程标签 */: varchar(256)&lt;/p&gt;&lt;hr size=&quot;1&quot;/&gt;&lt;p style=&quot;margin:0 0 0 4px;line-height:1.6;&quot;&gt; id  /* 主键 */: bigint&lt;/p&gt;" style="verticalAlign=top;align=left;overflow=fill;fontSize=14;fontFamily=Helvetica;html=1;rounded=0;shadow=0;comic=0;labelBackgroundColor=none;strokeWidth=1;" parent="1" vertex="1">
          <mxGeometry x="1342.5" y="980" width="263" height="328" as="geometry" />
        </mxCell>
        <mxCell id="9cYoRjUQ95D6RNDLffrj-25" value="&lt;p style=&quot;margin:0px;margin-top:4px;text-align:center;&quot;&gt;&lt;b&gt;t_training_assignment  /* 培训作业 */&lt;/b&gt;&lt;/p&gt;&lt;hr size=&quot;1&quot;/&gt;&lt;p style=&quot;margin:0 0 0 4px;line-height:1.6;&quot;&gt; code  /* 作业编码 */: varchar(256)&lt;br/&gt; tiltle  /* 作业名称 */: varchar(256)&lt;br/&gt; type  /* 作业类型 */: bigint&lt;br/&gt; created_by  /* 创建者 */: varchar(256)&lt;br/&gt; updated_by  /* 更新者 */: varchar(256)&lt;br/&gt; created_time  /* 创建时间 */: datetime&lt;br/&gt; updated_time  /* 更新时间 */: datetime&lt;br/&gt; remark  /* 备注 */: varchar(256)&lt;br/&gt; requirements  /* 作业要求 */: varchar(4000)&lt;br/&gt; attachment  /* 作业附件 */: varchar(256)&lt;/p&gt;&lt;hr size=&quot;1&quot;/&gt;&lt;p style=&quot;margin:0 0 0 4px;line-height:1.6;&quot;&gt; id  /* 主键 */: bigint&lt;/p&gt;" style="verticalAlign=top;align=left;overflow=fill;fontSize=14;fontFamily=Helvetica;html=1;rounded=0;shadow=0;comic=0;labelBackgroundColor=none;strokeWidth=1;" parent="1" vertex="1">
          <mxGeometry x="453.5" y="20" width="275" height="304" as="geometry" />
        </mxCell>
        <mxCell id="9cYoRjUQ95D6RNDLffrj-26" value="&lt;p style=&quot;margin:0px;margin-top:4px;text-align:center;&quot;&gt;&lt;b&gt;t_training_chapter&lt;/b&gt;&lt;/p&gt;&lt;hr size=&quot;1&quot;/&gt;&lt;p style=&quot;margin:0 0 0 4px;line-height:1.6;&quot;&gt; created_time  /* 创建时间 */: datetime&lt;br/&gt; updated_time  /* 更新时间 */: datetime&lt;br/&gt; created_by  /* 创建者 */: varchar(256)&lt;br/&gt; updated_by  /* 更新者 */: varchar(256)&lt;br/&gt; name  /* 名称 */: varchar(256)&lt;br/&gt; courseware  /* 课件 */: varchar(4000)&lt;br/&gt; study_time_hour  /* 建议学习时长（时） */: decimal(31,2)&lt;br/&gt; training_id  /* 课程ID */: bigint&lt;br/&gt; study_time_minutes  /* 建议学习时长（分） */: decimal(31,2)&lt;br/&gt; courseware_id  /* 课件Id */: bigint&lt;br/&gt; schedule  /* 是否学完 */: tinyint(1)&lt;/p&gt;&lt;hr size=&quot;1&quot;/&gt;&lt;p style=&quot;margin:0 0 0 4px;line-height:1.6;&quot;&gt; id  /* 主键 */: bigint&lt;/p&gt;" style="verticalAlign=top;align=left;overflow=fill;fontSize=14;fontFamily=Helvetica;html=1;rounded=0;shadow=0;comic=0;labelBackgroundColor=none;strokeWidth=1;" parent="1" vertex="1">
          <mxGeometry x="20" y="1328" width="362" height="328" as="geometry" />
        </mxCell>
        <mxCell id="9cYoRjUQ95D6RNDLffrj-27" value="&lt;p style=&quot;margin:0px;margin-top:4px;text-align:center;&quot;&gt;&lt;b&gt;t_training_class_info&lt;/b&gt;&lt;/p&gt;&lt;hr size=&quot;1&quot;/&gt;&lt;p style=&quot;margin:0 0 0 4px;line-height:1.6;&quot;&gt; created_time  /* 创建时间 */: datetime&lt;br/&gt; updated_time  /* 更新时间 */: datetime&lt;br/&gt; created_by  /* 创建者 */: varchar(256)&lt;br/&gt; updated_by  /* 更新者 */: varchar(256)&lt;br/&gt; class_name  /* 班级名称 */: varchar(256)&lt;br/&gt; class_number  /* 班级编号 */: varchar(256)&lt;br/&gt; training_id  /* 关联课程 */: bigint&lt;br/&gt; is_open  /* 班级状态 */: tinyint(1)&lt;br/&gt; open_time  /* 开营时间 */: datetime&lt;br/&gt; plan_time  /* 预计结营时间 */: datetime&lt;br/&gt; actu_time  /* 实际结营时间 */: datetime&lt;br/&gt; tea_id  /* 班主任 */: varchar(256)&lt;br/&gt; subhead  /* 副班主任 */: varchar(256)&lt;br/&gt; message_signature  /* 消息落款 */: varchar(256)&lt;br/&gt; cost_expenditure  /* 费用支出 */: decimal(31,2)&lt;br/&gt; class_charge  /* 学员收费 */: decimal(31,2)&lt;br/&gt; class_open_time  /* 开课时间 */: datetime&lt;br/&gt; study_time  /* 课程学习时长 */: decimal(31,2)&lt;br/&gt; sign_count  /* 签到次数 */: bigint&lt;br/&gt; class_location  /* 上课地点 */: varchar(256)&lt;br/&gt; registration_method  /* 报名方式 */: varchar(256)&lt;br/&gt; registration_approval  /* 报名审批 */: varchar(256)&lt;br/&gt; teacher  /* 主讲人 */: bigint&lt;br/&gt; class_type  /* 班级类型 */: varchar(256)&lt;br/&gt; project_id  /* 关联项目 */: bigint&lt;br/&gt; class_online_type  /* 线上线下类型 */: varchar(256)&lt;br/&gt; pic  /* 班级照片 */: mediumtext&lt;br/&gt; is_premium  /* 是否精选 */: tinyint(1)&lt;br/&gt; view_count  /* 浏览次数 */: bigint&lt;br/&gt; teacher_score  /* 讲师评分平均分 */: decimal(31,2)&lt;br/&gt; teacher_self_score  /* 讲师自评分 */: decimal(31,2)&lt;br/&gt; head_name  /* 班主任姓名 */: varchar(256)&lt;br/&gt; sub_head_name  /* 副班主任姓名 */: varchar(256)&lt;br/&gt; department_name  /* 面向部门 */: varchar(256)&lt;br/&gt; disable  /* 下架 */: tinyint(1)&lt;br/&gt; train_list  /* 项目班级课程集合 */: text&lt;br/&gt; project_class_id  /* 项目班级id */: bigint&lt;/p&gt;&lt;hr size=&quot;1&quot;/&gt;&lt;p style=&quot;margin:0 0 0 4px;line-height:1.6;&quot;&gt; id  /* 主键 */: bigint&lt;/p&gt;" style="verticalAlign=top;align=left;overflow=fill;fontSize=14;fontFamily=Helvetica;html=1;rounded=0;shadow=0;comic=0;labelBackgroundColor=none;strokeWidth=1;" parent="1" vertex="1">
          <mxGeometry x="45.5" y="3428" width="311" height="952" as="geometry" />
        </mxCell>
        <mxCell id="9cYoRjUQ95D6RNDLffrj-28" value="&lt;p style=&quot;margin:0px;margin-top:4px;text-align:center;&quot;&gt;&lt;b&gt;t_training_class_student&lt;/b&gt;&lt;/p&gt;&lt;hr size=&quot;1&quot;/&gt;&lt;p style=&quot;margin:0 0 0 4px;line-height:1.6;&quot;&gt; created_time  /* 创建时间 */: datetime&lt;br/&gt; updated_time  /* 更新时间 */: datetime&lt;br/&gt; created_by  /* 创建者 */: varchar(256)&lt;br/&gt; updated_by  /* 更新者 */: varchar(256)&lt;br/&gt; name  /* 学员 */: varchar(256)&lt;br/&gt; department  /* 所属部门 */: varchar(256)&lt;br/&gt; job  /* 岗位名称 */: varchar(256)&lt;br/&gt; leader  /* 直接主管 */: varchar(256)&lt;br/&gt; study_record_count  /* 学习记录 */: bigint&lt;br/&gt; registeration_method  /* 报名方式 */: varchar(256)&lt;br/&gt; sign_time  /* 签到次数 */: bigint&lt;br/&gt; is_sign_in  /* 签到状态 */: tinyint(1)&lt;br/&gt; sign_up_time  /* 签到时间 */: datetime&lt;br/&gt; class_id  /* 关联班级 */: bigint&lt;br/&gt; staff_i_d  /* 员工ID */: varchar(256)&lt;br/&gt; status  /* 报名状态 */: varchar(256)&lt;br/&gt; is_on_j_ob  /* 是否在职 */: tinyint(1)&lt;br/&gt; classtype  /* 班级类型 */: varchar(256)&lt;br/&gt; project_id  /* 关联项目 */: bigint&lt;br/&gt; requiredScore  /* 必修学分 */: decimal(31,2)&lt;br/&gt; optionalScore  /* 选修学分 */: decimal(31,2)&lt;br/&gt; homeworkScore  /* 作业学分 */: decimal(31,2)&lt;br/&gt; examScore  /* 考试学分 */: decimal(31,2)&lt;br/&gt; camp_status  /* 在营状态 */: varchar(256)&lt;br/&gt; credit_count  /* 总学分 */: decimal(31,2)&lt;br/&gt; compulsory  /* 必修学分 */: decimal(31,2)&lt;br/&gt; elective  /* 选修学分 */: decimal(31,2)&lt;br/&gt; homework  /* 作业学分 */: decimal(31,2)&lt;br/&gt; test  /* 考试学分 */: decimal(31,2)&lt;br/&gt; study_done  /* 学习任务完成 */: tinyint(1)&lt;br/&gt; train_exam_score  /* 课程考试分数 */: decimal(31,2)&lt;br/&gt; train_exam_is_pass  /* 课程考试是否通过 */: tinyint(1)&lt;br/&gt; train_exam_time  /* 课程考试时间 */: datetime&lt;br/&gt; train_e_xam_use_time  /* 课程考试用时 */: bigint&lt;br/&gt; h_r_b_p  /* HRBP */: varchar(256)&lt;br/&gt; head_teacher  /* 班主任 */: varchar(256)&lt;br/&gt; icon  /* 头像 */: mediumtext&lt;br/&gt; level  /* 职级 */: bigint&lt;/p&gt;&lt;hr size=&quot;1&quot;/&gt;&lt;p style=&quot;margin:0 0 0 4px;line-height:1.6;&quot;&gt; id  /* 主键 */: bigint&lt;/p&gt;" style="verticalAlign=top;align=left;overflow=fill;fontSize=14;fontFamily=Helvetica;html=1;rounded=0;shadow=0;comic=0;labelBackgroundColor=none;strokeWidth=1;" parent="1" vertex="1">
          <mxGeometry x="431.5" y="2432" width="319" height="976" as="geometry" />
        </mxCell>
        <mxCell id="9cYoRjUQ95D6RNDLffrj-29" value="&lt;p style=&quot;margin:0px;margin-top:4px;text-align:center;&quot;&gt;&lt;b&gt;t_training_classification&lt;/b&gt;&lt;/p&gt;&lt;hr size=&quot;1&quot;/&gt;&lt;p style=&quot;margin:0 0 0 4px;line-height:1.6;&quot;&gt; created_time  /* 创建时间 */: datetime&lt;br/&gt; updated_time  /* 更新时间 */: datetime&lt;br/&gt; created_by  /* 创建者 */: varchar(256)&lt;br/&gt; updated_by  /* 更新者 */: varchar(256)&lt;br/&gt; type_name  /* 名称 */: varchar(256)&lt;br/&gt; parent_id  /* 父级id */: bigint&lt;/p&gt;&lt;hr size=&quot;1&quot;/&gt;&lt;p style=&quot;margin:0 0 0 4px;line-height:1.6;&quot;&gt; id  /* 主键 */: bigint&lt;/p&gt;" style="verticalAlign=top;align=left;overflow=fill;fontSize=14;fontFamily=Helvetica;html=1;rounded=0;shadow=0;comic=0;labelBackgroundColor=none;strokeWidth=1;" parent="1" vertex="1">
          <mxGeometry x="78.5" y="980" width="245" height="208" as="geometry" />
        </mxCell>
        <mxCell id="9cYoRjUQ95D6RNDLffrj-30" value="&lt;p style=&quot;margin:0px;margin-top:4px;text-align:center;&quot;&gt;&lt;b&gt;t_training_courseware  /* 课件表 */&lt;/b&gt;&lt;/p&gt;&lt;hr size=&quot;1&quot;/&gt;&lt;p style=&quot;margin:0 0 0 4px;line-height:1.6;&quot;&gt; created_time  /* 创建时间 */: datetime&lt;br/&gt; updated_time  /* 更新时间 */: datetime&lt;br/&gt; created_by  /* 创建者 */: varchar(256)&lt;br/&gt; updated_by  /* 更新者 */: varchar(256)&lt;br/&gt; name  /* 名称 */: varchar(256)&lt;br/&gt; type  /* 类别 */: varchar(256)&lt;br/&gt; adjuncts  /* 附件 */: varchar(256)&lt;br/&gt; remark  /* 备注 */: varchar(256)&lt;br/&gt; type_id  /* 类别id */: bigint&lt;br/&gt; status  /* 审核状态 */: bigint&lt;br/&gt; review_by  /* 审核人 */: varchar(256)&lt;br/&gt; review_time  /* 审核时间 */: datetime&lt;br/&gt; review_idea  /* 审核意见 */: varchar(256)&lt;/p&gt;&lt;hr size=&quot;1&quot;/&gt;&lt;p style=&quot;margin:0 0 0 4px;line-height:1.6;&quot;&gt; id  /* 主键 */: bigint&lt;/p&gt;" style="verticalAlign=top;align=left;overflow=fill;fontSize=14;fontFamily=Helvetica;html=1;rounded=0;shadow=0;comic=0;labelBackgroundColor=none;strokeWidth=1;" parent="1" vertex="1">
          <mxGeometry x="926" y="1724" width="262" height="376" as="geometry" />
        </mxCell>
        <mxCell id="9cYoRjUQ95D6RNDLffrj-31" value="&lt;p style=&quot;margin:0px;margin-top:4px;text-align:center;&quot;&gt;&lt;b&gt;t_training_curriculum  /* 课程组 */&lt;/b&gt;&lt;/p&gt;&lt;hr size=&quot;1&quot;/&gt;&lt;p style=&quot;margin:0 0 0 4px;line-height:1.6;&quot;&gt; created_time  /* 创建时间 */: datetime&lt;br/&gt; updated_time  /* 更新时间 */: datetime&lt;br/&gt; created_by  /* 创建者 */: varchar(256)&lt;br/&gt; updated_by  /* 更新者 */: varchar(256)&lt;br/&gt; name  /* 课程名称 */: varchar(256)&lt;br/&gt; range  /* 课程范围 */: bigint&lt;br/&gt; cover_image  /* 封面 */: varchar(4000)&lt;br/&gt; synopsis  /* 简介 */: mediumtext&lt;br/&gt; details  /* 详情 */: varchar(256)&lt;br/&gt; adjunct  /* 附件 */: varchar(4000)&lt;br/&gt; target_populat  /* 目标人群 */: varchar(256)&lt;br/&gt; remark  /* 备注 */: varchar(256)&lt;br/&gt; counter  /* 开班次数 */: bigint&lt;br/&gt; survey_tmplate_id  /* 问卷模板Id */: bigint&lt;br/&gt; require_score  /* 必修分数 */: decimal(31,2)&lt;br/&gt; homework_score  /* 作业分数 */: decimal(31,2)&lt;br/&gt; exam_score  /* 考试分数 */: decimal(31,2)&lt;br/&gt; depart_id  /* 部门id */: bigint&lt;/p&gt;&lt;hr size=&quot;1&quot;/&gt;&lt;p style=&quot;margin:0 0 0 4px;line-height:1.6;&quot;&gt; id  /* 主键 */: bigint&lt;/p&gt;" style="verticalAlign=top;align=left;overflow=fill;fontSize=14;fontFamily=Helvetica;html=1;rounded=0;shadow=0;comic=0;labelBackgroundColor=none;strokeWidth=1;" parent="1" vertex="1">
          <mxGeometry x="474" y="3770" width="292" height="496" as="geometry" />
        </mxCell>
        <mxCell id="9cYoRjUQ95D6RNDLffrj-32" value="&lt;p style=&quot;margin:0px;margin-top:4px;text-align:center;&quot;&gt;&lt;b&gt;t_training_curriculum_credit  /* 课程组学分管理 */&lt;/b&gt;&lt;/p&gt;&lt;hr size=&quot;1&quot;/&gt;&lt;p style=&quot;margin:0 0 0 4px;line-height:1.6;&quot;&gt; created_time  /* 创建时间 */: datetime&lt;br/&gt; updated_time  /* 更新时间 */: datetime&lt;br/&gt; created_by  /* 创建者 */: varchar(256)&lt;br/&gt; updated_by  /* 更新者 */: varchar(256)&lt;br/&gt; curriculum_id  /* 课程组id */: bigint&lt;br/&gt; required_course  /* 必修课学分 */: decimal(31,2)&lt;br/&gt; elective_course  /* 选修课学分 */: decimal(31,2)&lt;br/&gt; assignment  /* 作业要求分 */: decimal(31,2)&lt;br/&gt; exam  /* 考试要求分 */: decimal(31,2)&lt;br/&gt; info_id: bigint&lt;/p&gt;&lt;hr size=&quot;1&quot;/&gt;&lt;p style=&quot;margin:0 0 0 4px;line-height:1.6;&quot;&gt; id  /* 主键 */: bigint&lt;/p&gt;" style="verticalAlign=top;align=left;overflow=fill;fontSize=14;fontFamily=Helvetica;html=1;rounded=0;shadow=0;comic=0;labelBackgroundColor=none;strokeWidth=1;" parent="1" vertex="1">
          <mxGeometry x="1299.5" y="20" width="349" height="304" as="geometry" />
        </mxCell>
        <mxCell id="9cYoRjUQ95D6RNDLffrj-33" value="&lt;p style=&quot;margin:0px;margin-top:4px;text-align:center;&quot;&gt;&lt;b&gt;t_training_curriculum_info_relation  /* 课程组  课程关系关联表 */&lt;/b&gt;&lt;/p&gt;&lt;hr size=&quot;1&quot;/&gt;&lt;p style=&quot;margin:0 0 0 4px;line-height:1.6;&quot;&gt; created_time  /* 创建时间 */: datetime&lt;br/&gt; updated_time  /* 更新时间 */: datetime&lt;br/&gt; created_by  /* 创建者 */: varchar(256)&lt;br/&gt; updated_by  /* 更新者 */: varchar(256)&lt;br/&gt; curriculum_id  /* 课程组id */: bigint&lt;br/&gt; info_id  /* 课程id */: bigint&lt;br/&gt; required_course  /* 必修课分数 */: decimal(31,2)&lt;br/&gt; elective_course  /* 选修课分数 */: decimal(31,2)&lt;br/&gt; assignment  /* 作业要求分 */: decimal(31,2)&lt;br/&gt; exam  /* 考试要求分 */: decimal(31,2)&lt;br/&gt; train_status  /* 是否开课 */: tinyint(1)&lt;br/&gt; begin_time  /* 开课时间 */: datetime&lt;br/&gt; study_time  /* 学习时间 */: bigint&lt;br/&gt; register_number  /* 签到次数 */: bigint&lt;br/&gt; place  /* 上课地点 */: varchar(256)&lt;br/&gt; teacher_id  /* 教师id */: bigint&lt;/p&gt;&lt;hr size=&quot;1&quot;/&gt;&lt;p style=&quot;margin:0 0 0 4px;line-height:1.6;&quot;&gt; id  /* 主键 */: bigint&lt;/p&gt;" style="verticalAlign=top;align=left;overflow=fill;fontSize=14;fontFamily=Helvetica;html=1;rounded=0;shadow=0;comic=0;labelBackgroundColor=none;strokeWidth=1;" parent="1" vertex="1">
          <mxGeometry x="838" y="5552" width="438" height="448" as="geometry" />
        </mxCell>
        <mxCell id="9cYoRjUQ95D6RNDLffrj-34" value="&lt;p style=&quot;margin:0px;margin-top:4px;text-align:center;&quot;&gt;&lt;b&gt;t_training_home_work&lt;/b&gt;&lt;/p&gt;&lt;hr size=&quot;1&quot;/&gt;&lt;p style=&quot;margin:0 0 0 4px;line-height:1.6;&quot;&gt; created_time  /* 创建时间 */: datetime&lt;br/&gt; updated_time  /* 更新时间 */: datetime&lt;br/&gt; created_by  /* 创建者 */: varchar(256)&lt;br/&gt; updated_by  /* 更新者 */: varchar(256)&lt;br/&gt; name  /* 名称 */: varchar(256)&lt;br/&gt; requirements  /* 作业要求 */: varchar(4000)&lt;br/&gt; training_id  /* 所属课程 */: bigint&lt;br/&gt; assignment  /* 关联作业 */: text&lt;br/&gt; review_type  /* 是否需要评阅 */: varchar(256)&lt;br/&gt; study_done  /* 是否完成学习后开启 */: tinyint(1)&lt;br/&gt; end_time  /* 作业提交截止时间 */: datetime&lt;br/&gt; type  /* 是否是项目班级作业 */: tinyint(1)&lt;br/&gt; project_class_id  /* 项目班级id */: bigint&lt;br/&gt; score  /* 学分 */: decimal(31,2)&lt;br/&gt; project_id  /* 关联项目 */: bigint&lt;br/&gt; project_work_id  /* 项目作业id */: bigint&lt;br/&gt; is_publish  /* 是否发布 */: tinyint(1)&lt;br/&gt; require_annex  /* 作业要求附件 */: varchar(4000)&lt;br/&gt; description  /* 备注 */: varchar(256)&lt;br/&gt; is_complete  /* 是否已审批完毕 */: tinyint(1)&lt;br/&gt; train_class_id: bigint&lt;br/&gt; is_pass  /* 是否每次项目课程作业都通过 */: tinyint(1)&lt;br/&gt; assigment_id  /* 作业id */: bigint&lt;/p&gt;&lt;hr size=&quot;1&quot;/&gt;&lt;p style=&quot;margin:0 0 0 4px;line-height:1.6;&quot;&gt; id  /* 主键 */: bigint&lt;/p&gt;" style="verticalAlign=top;align=left;overflow=fill;fontSize=14;fontFamily=Helvetica;html=1;rounded=0;shadow=0;comic=0;labelBackgroundColor=none;strokeWidth=1;" parent="1" vertex="1">
          <mxGeometry x="1323.5" y="344" width="301" height="616" as="geometry" />
        </mxCell>
        <mxCell id="9cYoRjUQ95D6RNDLffrj-35" value="&lt;p style=&quot;margin:0px;margin-top:4px;text-align:center;&quot;&gt;&lt;b&gt;t_training_info&lt;/b&gt;&lt;/p&gt;&lt;hr size=&quot;1&quot;/&gt;&lt;p style=&quot;margin:0 0 0 4px;line-height:1.6;&quot;&gt; created_time  /* 创建时间 */: datetime&lt;br/&gt; updated_time  /* 更新时间 */: datetime&lt;br/&gt; created_by  /* 创建者 */: varchar(256)&lt;br/&gt; updated_by  /* 更新者 */: varchar(256)&lt;br/&gt; code  /* 编码 */: varchar(256)&lt;br/&gt; name  /* 名称 */: varchar(256)&lt;br/&gt; status  /* 状态 */: varchar(256)&lt;br/&gt; target_department  /* ⽬标部⻔ */: varchar(256)&lt;br/&gt; message_signature  /* 消息落款 */: varchar(256)&lt;br/&gt; sealing  /* 封面 */: varchar(4000)&lt;br/&gt; data  /* 资料 */: varchar(4000)&lt;br/&gt; introduction  /* 简介 */: varchar(4000)&lt;br/&gt; target_people  /* ⽬标⼈群 */: varchar(256)&lt;br/&gt; benefits  /* 课程收益 */: decimal(31,2)&lt;br/&gt; schedule  /* 关联排期 */: bigint&lt;br/&gt; note  /* 备注 */: varchar(4000)&lt;br/&gt; training_scope  /* 课程范围 */: varchar(256)&lt;br/&gt; trainingclassification  /* 课程类别 */: bigint&lt;/p&gt;&lt;hr size=&quot;1&quot;/&gt;&lt;p style=&quot;margin:0 0 0 4px;line-height:1.6;&quot;&gt; id  /* 主键 */: bigint&lt;/p&gt;" style="verticalAlign=top;align=left;overflow=fill;fontSize=14;fontFamily=Helvetica;html=1;rounded=0;shadow=0;comic=0;labelBackgroundColor=none;strokeWidth=1;" parent="1" vertex="1">
          <mxGeometry x="52.5" y="6272" width="297" height="496" as="geometry" />
        </mxCell>
        <mxCell id="9cYoRjUQ95D6RNDLffrj-36" value="&lt;p style=&quot;margin:0px;margin-top:4px;text-align:center;&quot;&gt;&lt;b&gt;t_training_lecturer  /* 讲师申请表 */&lt;/b&gt;&lt;/p&gt;&lt;hr size=&quot;1&quot;/&gt;&lt;p style=&quot;margin:0 0 0 4px;line-height:1.6;&quot;&gt; created_time  /* 创建时间 */: datetime&lt;br/&gt; updated_time  /* 更新时间 */: datetime&lt;br/&gt; created_by  /* 创建者 */: varchar(256)&lt;br/&gt; updated_by  /* 更新者 */: varchar(256)&lt;br/&gt; user_id  /* 用户id */: varchar(256)&lt;br/&gt; user_name  /* 用户名称 */: varchar(256)&lt;br/&gt; pic_url  /* 用户照片 */: varchar(256)&lt;br/&gt; training_id  /* 课程id */: varchar(256)&lt;br/&gt; desc  /* 简介 */: varchar(256)&lt;br/&gt; training_name  /* 课程名称 */: varchar(256)&lt;br/&gt; status  /* 状态 */: varchar(256)&lt;br/&gt; department  /* 所属部门 */: varchar(256)&lt;br/&gt; phone  /* 手机号 */: varchar(256)&lt;/p&gt;&lt;hr size=&quot;1&quot;/&gt;&lt;p style=&quot;margin:0 0 0 4px;line-height:1.6;&quot;&gt; id  /* 主键 */: bigint&lt;/p&gt;" style="verticalAlign=top;align=left;overflow=fill;fontSize=14;fontFamily=Helvetica;html=1;rounded=0;shadow=0;comic=0;labelBackgroundColor=none;strokeWidth=1;" parent="1" vertex="1">
          <mxGeometry x="922.5" y="1328" width="269" height="376" as="geometry" />
        </mxCell>
        <mxCell id="9cYoRjUQ95D6RNDLffrj-37" value="&lt;p style=&quot;margin:0px;margin-top:4px;text-align:center;&quot;&gt;&lt;b&gt;t_training_level_info&lt;/b&gt;&lt;/p&gt;&lt;hr size=&quot;1&quot;/&gt;&lt;p style=&quot;margin:0 0 0 4px;line-height:1.6;&quot;&gt; created_time  /* 创建时间 */: datetime&lt;br/&gt; updated_time  /* 更新时间 */: datetime&lt;br/&gt; created_by  /* 创建者 */: varchar(256)&lt;br/&gt; updated_by  /* 更新者 */: varchar(256)&lt;br/&gt; level_name  /* 关卡名称 */: varchar(256)&lt;br/&gt; desc  /* 关卡简介 */: varchar(256)&lt;br/&gt; tips  /* 关卡提示 */: varchar(256)&lt;br/&gt; pic  /* 关卡图片 */: varchar(256)&lt;/p&gt;&lt;hr size=&quot;1&quot;/&gt;&lt;p style=&quot;margin:0 0 0 4px;line-height:1.6;&quot;&gt; id  /* 主键 */: bigint&lt;/p&gt;" style="verticalAlign=top;align=left;overflow=fill;fontSize=14;fontFamily=Helvetica;html=1;rounded=0;shadow=0;comic=0;labelBackgroundColor=none;strokeWidth=1;" parent="1" vertex="1">
          <mxGeometry x="1350" y="1724" width="248" height="256" as="geometry" />
        </mxCell>
        <mxCell id="9cYoRjUQ95D6RNDLffrj-38" value="&lt;p style=&quot;margin:0px;margin-top:4px;text-align:center;&quot;&gt;&lt;b&gt;t_training_paper_mapping&lt;/b&gt;&lt;/p&gt;&lt;hr size=&quot;1&quot;/&gt;&lt;p style=&quot;margin:0 0 0 4px;line-height:1.6;&quot;&gt; created_time  /* 创建时间 */: datetime&lt;br/&gt; updated_time  /* 更新时间 */: datetime&lt;br/&gt; created_by  /* 创建者 */: varchar(256)&lt;br/&gt; updated_by  /* 更新者 */: varchar(256)&lt;br/&gt; paper_id  /* 关联试卷 */: bigint&lt;br/&gt; paper_type  /* 试卷类型 */: varchar(256)&lt;br/&gt; study_done  /* 是否完成学习后开启 */: tinyint(1)&lt;br/&gt; time_limit  /* 单次限时 */: tinyint(1)&lt;br/&gt; submit_limit  /* 是否限次 */: tinyint(1)&lt;br/&gt; max_submit  /* 限制次数 */: bigint&lt;br/&gt; pass_grade  /* 考试通过标准 */: decimal(31,2)&lt;br/&gt; must_be_pass  /* 不通过是否需要重考 */: tinyint(1)&lt;br/&gt; grade_publish_time  /* 成绩公布时间 */: varchar(256)&lt;br/&gt; grade_time_value  /* 成绩公布指定时间 */: datetime&lt;br/&gt; answer_publish_time  /* 答案解析公布时间 */: varchar(256)&lt;br/&gt; answer_time_value  /* 答案解析指定时间 */: datetime&lt;br/&gt; test_name  /* 考试名称 */: varchar(256)&lt;br/&gt; ab_paperid  /* 关联ab卷Id */: text&lt;br/&gt; training_id  /* 关联课程id */: bigint&lt;br/&gt; timelimit_value  /* 限制时间 */: bigint&lt;br/&gt; grade_standard  /* 最终成绩标准 */: varchar(256)&lt;br/&gt; project_id  /* 关联项目id */: bigint&lt;br/&gt; score  /* 分数 */: decimal(31,2)&lt;br/&gt; is_publish  /* 是否已发布 */: tinyint(1)&lt;br/&gt; is_pass  /* 项目课程考试是否通过 */: tinyint(1)&lt;br/&gt; training_class_id  /* 班级id */: bigint&lt;/p&gt;&lt;hr size=&quot;1&quot;/&gt;&lt;p style=&quot;margin:0 0 0 4px;line-height:1.6;&quot;&gt; id  /* 主键 */: bigint&lt;/p&gt;" style="verticalAlign=top;align=left;overflow=fill;fontSize=14;fontFamily=Helvetica;html=1;rounded=0;shadow=0;comic=0;labelBackgroundColor=none;strokeWidth=1;" parent="1" vertex="1">
          <mxGeometry x="416" y="1724" width="350" height="688" as="geometry" />
        </mxCell>
        <mxCell id="9cYoRjUQ95D6RNDLffrj-39" value="&lt;p style=&quot;margin:0px;margin-top:4px;text-align:center;&quot;&gt;&lt;b&gt;t_training_question  /* 试题 */&lt;/b&gt;&lt;/p&gt;&lt;hr size=&quot;1&quot;/&gt;&lt;p style=&quot;margin:0 0 0 4px;line-height:1.6;&quot;&gt; created_time  /* 创建时间 */: datetime&lt;br/&gt; updated_time  /* 更新时间 */: datetime&lt;br/&gt; created_by  /* 创建者 */: varchar(256)&lt;br/&gt; updated_by  /* 更新者 */: varchar(256)&lt;br/&gt; questionbank_id  /* 题库id */: bigint&lt;br/&gt; type  /* 试题类型 */: varchar(256)&lt;br/&gt; stem  /* 题干 */: varchar(4000)&lt;br/&gt; options  /* 选项 */: varchar(4000)&lt;br/&gt; classification  /* 分类 */: varchar(256)&lt;br/&gt; answer  /* 答案 */: varchar(256)&lt;br/&gt; desc  /* 说明 */: varchar(4000)&lt;br/&gt; classification_id: bigint&lt;/p&gt;&lt;hr size=&quot;1&quot;/&gt;&lt;p style=&quot;margin:0 0 0 4px;line-height:1.6;&quot;&gt; id  /* 主键 */: bigint&lt;/p&gt;" style="verticalAlign=top;align=left;overflow=fill;fontSize=14;fontFamily=Helvetica;html=1;rounded=0;shadow=0;comic=0;labelBackgroundColor=none;strokeWidth=1;" parent="1" vertex="1">
          <mxGeometry x="934.5" y="2432" width="245" height="352" as="geometry" />
        </mxCell>
        <mxCell id="9cYoRjUQ95D6RNDLffrj-40" style="edgeStyle=orthogonalEdgeStyle;rounded=0;orthogonalLoop=1;jettySize=auto;html=1;exitDx=0;exitDy=0;noEdgeStyle=1;orthogonal=1;" parent="1" source="9cYoRjUQ95D6RNDLffrj-42" target="9cYoRjUQ95D6RNDLffrj-43" edge="1">
          <mxGeometry relative="1" as="geometry">
            <Array as="points">
              <mxPoint x="591" y="5779" />
              <mxPoint x="591" y="6015" />
            </Array>
          </mxGeometry>
        </mxCell>
        <mxCell id="9cYoRjUQ95D6RNDLffrj-41" value="1：1" style="edgeLabel;html=1;align=center;verticalAlign=middle;resizable=0;points=[];" parent="9cYoRjUQ95D6RNDLffrj-40" vertex="1" connectable="0">
          <mxGeometry x="0.162" y="-1" relative="1" as="geometry">
            <mxPoint as="offset" />
          </mxGeometry>
        </mxCell>
        <mxCell id="9cYoRjUQ95D6RNDLffrj-42" value="&lt;p style=&quot;margin:0px;margin-top:4px;text-align:center;&quot;&gt;&lt;b&gt;t_training_question_classification&lt;/b&gt;&lt;/p&gt;&lt;hr size=&quot;1&quot;/&gt;&lt;p style=&quot;margin:0 0 0 4px;line-height:1.6;&quot;&gt; created_time  /* 创建时间 */: datetime&lt;br/&gt; updated_time  /* 更新时间 */: datetime&lt;br/&gt; created_by  /* 创建者 */: varchar(256)&lt;br/&gt; updated_by  /* 更新者 */: varchar(256)&lt;br/&gt; name  /* 名称 */: varchar(256)&lt;br/&gt; question_bank_id  /* 题库id */: bigint&lt;br/&gt; f_id  /* 父级id */: bigint&lt;/p&gt;&lt;hr size=&quot;1&quot;/&gt;&lt;p style=&quot;margin:0 0 0 4px;line-height:1.6;&quot;&gt; id  /* 主键 */: bigint&lt;/p&gt;" style="verticalAlign=top;align=left;overflow=fill;fontSize=14;fontFamily=Helvetica;html=1;rounded=0;shadow=0;comic=0;labelBackgroundColor=none;strokeWidth=1;" parent="1" vertex="1">
          <mxGeometry x="450" y="5552" width="282" height="232" as="geometry" />
        </mxCell>
        <mxCell id="9cYoRjUQ95D6RNDLffrj-43" value="&lt;p style=&quot;margin:0px;margin-top:4px;text-align:center;&quot;&gt;&lt;b&gt;t_training_questionbank  /* 题库 */&lt;/b&gt;&lt;/p&gt;&lt;hr size=&quot;1&quot;/&gt;&lt;p style=&quot;margin:0 0 0 4px;line-height:1.6;&quot;&gt; created_time  /* 创建时间 */: datetime&lt;br/&gt; updated_time  /* 更新时间 */: datetime&lt;br/&gt; created_by  /* 创建者 */: varchar(256)&lt;br/&gt; updated_by  /* 更新者 */: varchar(256)&lt;br/&gt; name  /* 题库名称 */: varchar(256)&lt;br/&gt; desc  /* 题库说明 */: varchar(256)&lt;br/&gt; remark  /* 题库备注 */: varchar(256)&lt;/p&gt;&lt;hr size=&quot;1&quot;/&gt;&lt;p style=&quot;margin:0 0 0 4px;line-height:1.6;&quot;&gt; id  /* 主键 */: bigint&lt;/p&gt;" style="verticalAlign=top;align=left;overflow=fill;fontSize=14;fontFamily=Helvetica;html=1;rounded=0;shadow=0;comic=0;labelBackgroundColor=none;strokeWidth=1;" parent="1" vertex="1">
          <mxGeometry x="456.5" y="6020" width="269" height="232" as="geometry" />
        </mxCell>
        <mxCell id="9cYoRjUQ95D6RNDLffrj-44" value="&lt;p style=&quot;margin:0px;margin-top:4px;text-align:center;&quot;&gt;&lt;b&gt;t_training_survey&lt;/b&gt;&lt;/p&gt;&lt;hr size=&quot;1&quot;/&gt;&lt;p style=&quot;margin:0 0 0 4px;line-height:1.6;&quot;&gt; created_time  /* 创建时间 */: datetime&lt;br/&gt; updated_time  /* 更新时间 */: datetime&lt;br/&gt; created_by  /* 创建者 */: varchar(256)&lt;br/&gt; updated_by  /* 更新者 */: varchar(256)&lt;br/&gt; training_id  /* 课程id */: bigint&lt;br/&gt; survey_type  /* 问卷类型 */: varchar(256)&lt;br/&gt; name  /* 问卷标题 */: varchar(256)&lt;br/&gt; explain  /* 问卷说明 */: varchar(4000)&lt;br/&gt; real_name  /* 是否实名制 */: tinyint(1)&lt;br/&gt; template_id  /* 模板id */: bigint&lt;br/&gt; class_id  /* 班级Id */: bigint&lt;/p&gt;&lt;hr size=&quot;1&quot;/&gt;&lt;p style=&quot;margin:0 0 0 4px;line-height:1.6;&quot;&gt; id  /* 主键 */: bigint&lt;/p&gt;" style="verticalAlign=top;align=left;overflow=fill;fontSize=14;fontFamily=Helvetica;html=1;rounded=0;shadow=0;comic=0;labelBackgroundColor=none;strokeWidth=1;" parent="1" vertex="1">
          <mxGeometry x="2570" y="5807.5" width="254" height="322.5" as="geometry" />
        </mxCell>
        <mxCell id="9cYoRjUQ95D6RNDLffrj-64" style="edgeStyle=orthogonalEdgeStyle;rounded=0;orthogonalLoop=1;jettySize=auto;html=1;exitX=0;exitY=0.5;exitDx=0;exitDy=0;" parent="1" source="9cYoRjUQ95D6RNDLffrj-45" edge="1">
          <mxGeometry relative="1" as="geometry">
            <mxPoint x="2830" y="5964.428571428572" as="targetPoint" />
          </mxGeometry>
        </mxCell>
        <mxCell id="9cYoRjUQ95D6RNDLffrj-65" value="1:N" style="edgeLabel;html=1;align=center;verticalAlign=middle;resizable=0;points=[];" parent="9cYoRjUQ95D6RNDLffrj-64" vertex="1" connectable="0">
          <mxGeometry x="0.0639" relative="1" as="geometry">
            <mxPoint as="offset" />
          </mxGeometry>
        </mxCell>
        <mxCell id="9cYoRjUQ95D6RNDLffrj-45" value="&lt;p style=&quot;margin:0px;margin-top:4px;text-align:center;&quot;&gt;&lt;b&gt;t_training_survey_question  /* 问卷题目表-ykj */&lt;/b&gt;&lt;/p&gt;&lt;hr size=&quot;1&quot;/&gt;&lt;p style=&quot;margin:0 0 0 4px;line-height:1.6;&quot;&gt; created_time  /* 创建时间 */: datetime&lt;br/&gt; updated_time  /* 更新时间 */: datetime&lt;br/&gt; created_by  /* 创建者 */: varchar(256)&lt;br/&gt; updated_by  /* 更新者 */: varchar(256)&lt;br/&gt; survey_id  /* 问卷id（trainingSurvey表id） */: bigint&lt;br/&gt; type  /* 类型：1.单选题 2.多选题 3.简答题 4.评分题 5.推荐题 */: bigint&lt;br/&gt; topic  /* 问卷题目 */: varchar(256)&lt;br/&gt; options  /* 选项 */: varchar(4000)&lt;br/&gt; order_index  /* 序号 */: bigint&lt;br/&gt; is_required  /* 是否必填 */: tinyint(1)&lt;br/&gt; option_limit  /* 多选可选限制 */: bigint&lt;/p&gt;&lt;hr size=&quot;1&quot;/&gt;&lt;p style=&quot;margin:0 0 0 4px;line-height:1.6;&quot;&gt; id  /* 主键 */: bigint&lt;/p&gt;" style="verticalAlign=top;align=left;overflow=fill;fontSize=14;fontFamily=Helvetica;html=1;rounded=0;shadow=0;comic=0;labelBackgroundColor=none;strokeWidth=1;" parent="1" vertex="1">
          <mxGeometry x="3160" y="5800" width="378" height="328" as="geometry" />
        </mxCell>
        <mxCell id="9cYoRjUQ95D6RNDLffrj-46" value="&lt;p style=&quot;margin:0px;margin-top:4px;text-align:center;&quot;&gt;&lt;b&gt;t_training_survey_template  /* 培训问卷 */&lt;/b&gt;&lt;/p&gt;&lt;hr size=&quot;1&quot;/&gt;&lt;p style=&quot;margin:0 0 0 4px;line-height:1.6;&quot;&gt; tmpl_code  /* 模板编码 */: varchar(256)&lt;br/&gt; title  /* 问卷模板标题 */: varchar(256)&lt;br/&gt; tmpl_type  /* 问卷模板类型（已弃用） */: bigint&lt;br/&gt; description  /* 问卷说明 */: varchar(4000)&lt;br/&gt; created_by  /* 创建者 */: varchar(256)&lt;br/&gt; updated_by  /* 更新者 */: varchar(256)&lt;br/&gt; created_time  /* 创建时间 */: datetime&lt;br/&gt; updated_time  /* 更新时间 */: datetime&lt;br/&gt; notes  /* 注释 */: varchar(256)&lt;/p&gt;&lt;hr size=&quot;1&quot;/&gt;&lt;p style=&quot;margin:0 0 0 4px;line-height:1.6;&quot;&gt; id  /* 主键 */: bigint&lt;/p&gt;" style="verticalAlign=top;align=left;overflow=fill;fontSize=14;fontFamily=Helvetica;html=1;rounded=0;shadow=0;comic=0;labelBackgroundColor=none;strokeWidth=1;" parent="1" vertex="1">
          <mxGeometry x="2570" y="6252" width="312" height="280" as="geometry" />
        </mxCell>
        <mxCell id="9cYoRjUQ95D6RNDLffrj-58" style="rounded=0;orthogonalLoop=1;jettySize=auto;html=1;exitX=0;exitY=0.5;exitDx=0;exitDy=0;entryX=1;entryY=0.5;entryDx=0;entryDy=0;" parent="1" source="9cYoRjUQ95D6RNDLffrj-47" target="9cYoRjUQ95D6RNDLffrj-46" edge="1">
          <mxGeometry relative="1" as="geometry">
            <Array as="points" />
          </mxGeometry>
        </mxCell>
        <mxCell id="9cYoRjUQ95D6RNDLffrj-59" value="1：N" style="edgeLabel;html=1;align=center;verticalAlign=middle;resizable=0;points=[];" parent="9cYoRjUQ95D6RNDLffrj-58" vertex="1" connectable="0">
          <mxGeometry x="-0.042" y="-2" relative="1" as="geometry">
            <mxPoint as="offset" />
          </mxGeometry>
        </mxCell>
        <mxCell id="9cYoRjUQ95D6RNDLffrj-47" value="&lt;p style=&quot;margin:0px;margin-top:4px;text-align:center;&quot;&gt;&lt;b&gt;t_training_survey_tmpl_question  /* 问卷模板下的问题 */&lt;/b&gt;&lt;/p&gt;&lt;hr size=&quot;1&quot;/&gt;&lt;p style=&quot;margin:0 0 0 4px;line-height:1.6;&quot;&gt; created_time  /* 创建时间 */: datetime&lt;br/&gt; updated_time  /* 更新时间 */: datetime&lt;br/&gt; created_by  /* 创建者 */: varchar(256)&lt;br/&gt; updated_by  /* 更新者 */: varchar(256)&lt;br/&gt; topic  /* 题目 */: varchar(256)&lt;br/&gt; is_required  /* 是否必填 */: tinyint(1)&lt;br/&gt; type  /* 题型 */: bigint&lt;br/&gt; order_index  /* 序号 */: bigint&lt;br/&gt; tmpl_id  /* 问卷模板ID */: bigint&lt;br/&gt; order: varchar(256)&lt;br/&gt; option_limit  /* 多选可选限制 */: bigint&lt;/p&gt;&lt;hr size=&quot;1&quot;/&gt;&lt;p style=&quot;margin:0 0 0 4px;line-height:1.6;&quot;&gt; id  /* 主键 */: bigint&lt;/p&gt;" style="verticalAlign=top;align=left;overflow=fill;fontSize=14;fontFamily=Helvetica;html=1;rounded=0;shadow=0;comic=0;labelBackgroundColor=none;strokeWidth=1;" parent="1" vertex="1">
          <mxGeometry x="3090" y="6250" width="394" height="328" as="geometry" />
        </mxCell>
        <mxCell id="9cYoRjUQ95D6RNDLffrj-66" style="edgeStyle=orthogonalEdgeStyle;rounded=0;orthogonalLoop=1;jettySize=auto;html=1;exitX=0;exitY=0.5;exitDx=0;exitDy=0;entryX=1;entryY=0.5;entryDx=0;entryDy=0;" parent="1" source="9cYoRjUQ95D6RNDLffrj-48" target="9cYoRjUQ95D6RNDLffrj-47" edge="1">
          <mxGeometry relative="1" as="geometry" />
        </mxCell>
        <mxCell id="9cYoRjUQ95D6RNDLffrj-67" value="1:N" style="edgeLabel;html=1;align=center;verticalAlign=middle;resizable=0;points=[];" parent="9cYoRjUQ95D6RNDLffrj-66" vertex="1" connectable="0">
          <mxGeometry x="-0.029" y="2" relative="1" as="geometry">
            <mxPoint as="offset" />
          </mxGeometry>
        </mxCell>
        <mxCell id="9cYoRjUQ95D6RNDLffrj-48" value="&lt;p style=&quot;margin:0px;margin-top:4px;text-align:center;&quot;&gt;&lt;b&gt;t_training_survey_tmpl_question_item  /* 培训模板问题的选项 */&lt;/b&gt;&lt;/p&gt;&lt;hr size=&quot;1&quot;/&gt;&lt;p style=&quot;margin:0 0 0 4px;line-height:1.6;&quot;&gt; created_time  /* 创建时间 */: datetime&lt;br/&gt; updated_time  /* 更新时间 */: datetime&lt;br/&gt; created_by  /* 创建者 */: varchar(256)&lt;br/&gt; updated_by  /* 更新者 */: varchar(256)&lt;br/&gt; tmpl_question_id  /* 问卷模板题目ID */: bigint&lt;br/&gt; content  /* 选项内容 */: varchar(256)&lt;br/&gt; order_index  /* 排序 */: bigint&lt;/p&gt;&lt;hr size=&quot;1&quot;/&gt;&lt;p style=&quot;margin:0 0 0 4px;line-height:1.6;&quot;&gt; id  /* 主键 */: bigint&lt;/p&gt;" style="verticalAlign=top;align=left;overflow=fill;fontSize=14;fontFamily=Helvetica;html=1;rounded=0;shadow=0;comic=0;labelBackgroundColor=none;strokeWidth=1;" parent="1" vertex="1">
          <mxGeometry x="3740" y="6298" width="445" height="232" as="geometry" />
        </mxCell>
        <mxCell id="9cYoRjUQ95D6RNDLffrj-49" value="&lt;p style=&quot;margin:0px;margin-top:4px;text-align:center;&quot;&gt;&lt;b&gt;t_training_tags&lt;/b&gt;&lt;/p&gt;&lt;hr size=&quot;1&quot;/&gt;&lt;p style=&quot;margin:0 0 0 4px;line-height:1.6;&quot;&gt; created_time  /* 创建时间 */: datetime&lt;br/&gt; updated_time  /* 更新时间 */: datetime&lt;br/&gt; created_by  /* 创建者 */: varchar(256)&lt;br/&gt; updated_by  /* 更新者 */: varchar(256)&lt;br/&gt; training_id  /* 课程id */: bigint&lt;br/&gt; tag_id  /* 标签id */: bigint&lt;/p&gt;&lt;hr size=&quot;1&quot;/&gt;&lt;p style=&quot;margin:0 0 0 4px;line-height:1.6;&quot;&gt; id  /* 主键 */: bigint&lt;/p&gt;" style="verticalAlign=top;align=left;overflow=fill;fontSize=14;fontFamily=Helvetica;html=1;rounded=0;shadow=0;comic=0;labelBackgroundColor=none;strokeWidth=1;" parent="1" vertex="1">
          <mxGeometry x="78.5" y="6980" width="245" height="208" as="geometry" />
        </mxCell>
        <mxCell id="9cYoRjUQ95D6RNDLffrj-50" value="&lt;p style=&quot;margin:0px;margin-top:4px;text-align:center;&quot;&gt;&lt;b&gt;t_training_teacher_mapping&lt;/b&gt;&lt;/p&gt;&lt;hr size=&quot;1&quot;/&gt;&lt;p style=&quot;margin:0 0 0 4px;line-height:1.6;&quot;&gt; created_time  /* 创建时间 */: datetime&lt;br/&gt; updated_time  /* 更新时间 */: datetime&lt;br/&gt; created_by  /* 创建者 */: varchar(256)&lt;br/&gt; updated_by  /* 更新者 */: varchar(256)&lt;br/&gt; training_id  /* 课程id */: bigint&lt;br/&gt; name  /* 课程名称 */: varchar(256)&lt;br/&gt; level  /* 认证等级 */: varchar(256)&lt;br/&gt; teacher_id  /* 讲师Id */: bigint&lt;br/&gt; authorized_date  /* 首次认证时间 */: date&lt;/p&gt;&lt;hr size=&quot;1&quot;/&gt;&lt;p style=&quot;margin:0 0 0 4px;line-height:1.6;&quot;&gt; id  /* 主键 */: bigint&lt;/p&gt;" style="verticalAlign=top;align=left;overflow=fill;fontSize=14;fontFamily=Helvetica;html=1;rounded=0;shadow=0;comic=0;labelBackgroundColor=none;strokeWidth=1;" parent="1" vertex="1">
          <mxGeometry x="74" y="5552" width="254" height="280" as="geometry" />
        </mxCell>
        <mxCell id="9cYoRjUQ95D6RNDLffrj-51" value="&lt;p style=&quot;margin:0px;margin-top:4px;text-align:center;&quot;&gt;&lt;b&gt;t_training_test_paper&lt;/b&gt;&lt;/p&gt;&lt;hr size=&quot;1&quot;/&gt;&lt;p style=&quot;margin:0 0 0 4px;line-height:1.6;&quot;&gt; created_time  /* 创建时间 */: datetime&lt;br/&gt; updated_time  /* 更新时间 */: datetime&lt;br/&gt; created_by  /* 创建者 */: varchar(256)&lt;br/&gt; updated_by  /* 更新者 */: varchar(256)&lt;br/&gt; name  /* 标题 */: varchar(256)&lt;br/&gt; single_choice_score  /* 单选题分值 */: decimal(31,2)&lt;br/&gt; multiple_choice_score  /* 多选题分值 */: decimal(31,2)&lt;br/&gt; tof_question_score  /* 判断题分值 */: decimal(31,2)&lt;br/&gt; is_random_paper  /* 是否随机卷 */: tinyint(1)&lt;br/&gt; single_choice_num  /* 单选数量 */: bigint&lt;br/&gt; multiple_choice_num  /* 多选数量 */: bigint&lt;br/&gt; tof_question_num  /* 判断数量 */: bigint&lt;br/&gt; remark  /* 备注 */: varchar(256)&lt;br/&gt; sort_type  /* 试题顺序 */: varchar(256)&lt;/p&gt;&lt;hr size=&quot;1&quot;/&gt;&lt;p style=&quot;margin:0 0 0 4px;line-height:1.6;&quot;&gt; id  /* 主键 */: bigint&lt;/p&gt;" style="verticalAlign=top;align=left;overflow=fill;fontSize=14;fontFamily=Helvetica;html=1;rounded=0;shadow=0;comic=0;labelBackgroundColor=none;strokeWidth=1;" parent="1" vertex="1">
          <mxGeometry x="892" y="344" width="330" height="400" as="geometry" />
        </mxCell>
        <mxCell id="9cYoRjUQ95D6RNDLffrj-52" value="&lt;p style=&quot;margin:0px;margin-top:4px;text-align:center;&quot;&gt;&lt;b&gt;t_training_test_paper_question&lt;/b&gt;&lt;/p&gt;&lt;hr size=&quot;1&quot;/&gt;&lt;p style=&quot;margin:0 0 0 4px;line-height:1.6;&quot;&gt; created_time  /* 创建时间 */: datetime&lt;br/&gt; updated_time  /* 更新时间 */: datetime&lt;br/&gt; created_by  /* 创建者 */: varchar(256)&lt;br/&gt; updated_by  /* 更新者 */: varchar(256)&lt;br/&gt; test_paper_id  /* 试卷id */: bigint&lt;br/&gt; question_id  /* 试题id */: bigint&lt;br/&gt; question_bank_id  /* 题库id */: bigint&lt;br/&gt; classification  /* 分类 */: varchar(256)&lt;br/&gt; classification_id: bigint&lt;br/&gt; question_bank_name: varchar(256)&lt;/p&gt;&lt;hr size=&quot;1&quot;/&gt;&lt;p style=&quot;margin:0 0 0 4px;line-height:1.6;&quot;&gt; id  /* 主键 */: bigint&lt;/p&gt;" style="verticalAlign=top;align=left;overflow=fill;fontSize=14;fontFamily=Helvetica;html=1;rounded=0;shadow=0;comic=0;labelBackgroundColor=none;strokeWidth=1;" parent="1" vertex="1">
          <mxGeometry x="850" y="6278" width="264" height="304" as="geometry" />
        </mxCell>
        <mxCell id="9cYoRjUQ95D6RNDLffrj-53" value="&lt;p style=&quot;margin:0px;margin-top:4px;text-align:center;&quot;&gt;&lt;b&gt;t_user_collection&lt;/b&gt;&lt;/p&gt;&lt;hr size=&quot;1&quot;/&gt;&lt;p style=&quot;margin:0 0 0 4px;line-height:1.6;&quot;&gt; created_time  /* 创建时间 */: datetime&lt;br/&gt; updated_time  /* 更新时间 */: datetime&lt;br/&gt; created_by  /* 创建者 */: varchar(256)&lt;br/&gt; updated_by  /* 更新者 */: varchar(256)&lt;br/&gt; class_id  /* 课程id */: bigint&lt;br/&gt; userid  /* 用户id */: varchar(256)&lt;/p&gt;&lt;hr size=&quot;1&quot;/&gt;&lt;p style=&quot;margin:0 0 0 4px;line-height:1.6;&quot;&gt; id  /* 主键 */: bigint&lt;/p&gt;" style="verticalAlign=top;align=left;overflow=fill;fontSize=14;fontFamily=Helvetica;html=1;rounded=0;shadow=0;comic=0;labelBackgroundColor=none;strokeWidth=1;" parent="1" vertex="1">
          <mxGeometry x="934.5" y="7424" width="245" height="208" as="geometry" />
        </mxCell>
        <mxCell id="9cYoRjUQ95D6RNDLffrj-54" value="&lt;p style=&quot;margin:0px;margin-top:4px;text-align:center;&quot;&gt;&lt;b&gt;t_user_project_train  /* 项目课表 */&lt;/b&gt;&lt;/p&gt;&lt;hr size=&quot;1&quot;/&gt;&lt;p style=&quot;margin:0 0 0 4px;line-height:1.6;&quot;&gt; created_time  /* 创建时间 */: datetime&lt;br/&gt; updated_time  /* 更新时间 */: datetime&lt;br/&gt; created_by  /* 创建者 */: varchar(256)&lt;br/&gt; updated_by  /* 更新者 */: varchar(256)&lt;br/&gt; train_id  /* 课程id */: bigint&lt;br/&gt; stu_id  /* 学员id */: bigint&lt;br/&gt; required_score  /* 必修学分 */: decimal(31,2)&lt;br/&gt; optional_score  /* 选修学分 */: decimal(31,2)&lt;br/&gt; homework_score  /* 作业学分 */: decimal(31,2)&lt;br/&gt; exam_score  /* 考试学分 */: decimal(31,2)&lt;br/&gt; project_id  /* 项目id */: bigint&lt;br/&gt; total_score  /* 总分数 */: decimal(31,2)&lt;/p&gt;&lt;hr size=&quot;1&quot;/&gt;&lt;p style=&quot;margin:0 0 0 4px;line-height:1.6;&quot;&gt; id  /* 主键 */: bigint&lt;/p&gt;" style="verticalAlign=top;align=left;overflow=fill;fontSize=14;fontFamily=Helvetica;html=1;rounded=0;shadow=0;comic=0;labelBackgroundColor=none;strokeWidth=1;" parent="1" vertex="1">
          <mxGeometry x="55" y="1724" width="292" height="352" as="geometry" />
        </mxCell>
        <mxCell id="9cYoRjUQ95D6RNDLffrj-55" value="&lt;p style=&quot;margin:0px;margin-top:4px;text-align:center;&quot;&gt;&lt;b&gt;t_user_subscribe&lt;/b&gt;&lt;/p&gt;&lt;hr size=&quot;1&quot;/&gt;&lt;p style=&quot;margin:0 0 0 4px;line-height:1.6;&quot;&gt; created_time  /* 创建时间 */: datetime&lt;br/&gt; updated_time  /* 更新时间 */: datetime&lt;br/&gt; created_by  /* 创建者 */: varchar(256)&lt;br/&gt; updated_by  /* 更新者 */: varchar(256)&lt;br/&gt; userid  /* 用户id */: varchar(256)&lt;br/&gt; classification  /* 关注的类别（多选） */: text&lt;br/&gt; others  /* 其他 */: varchar(256)&lt;br/&gt; target  /* 努力方向 */: varchar(256)&lt;br/&gt; name  /* 姓名 */: varchar(256)&lt;br/&gt; department  /* 所属部门 */: varchar(256)&lt;br/&gt; classification_string  /* 关注的类别标题 */: text&lt;/p&gt;&lt;hr size=&quot;1&quot;/&gt;&lt;p style=&quot;margin:0 0 0 4px;line-height:1.6;&quot;&gt; id  /* 主键 */: bigint&lt;/p&gt;" style="verticalAlign=top;align=left;overflow=fill;fontSize=14;fontFamily=Helvetica;html=1;rounded=0;shadow=0;comic=0;labelBackgroundColor=none;strokeWidth=1;" parent="1" vertex="1">
          <mxGeometry x="916" y="5204" width="282" height="328" as="geometry" />
        </mxCell>
        <mxCell id="9cYoRjUQ95D6RNDLffrj-62" style="edgeStyle=orthogonalEdgeStyle;rounded=0;orthogonalLoop=1;jettySize=auto;html=1;exitX=0.5;exitY=1;exitDx=0;exitDy=0;entryX=0.403;entryY=0.021;entryDx=0;entryDy=0;entryPerimeter=0;" parent="1" source="9cYoRjUQ95D6RNDLffrj-44" target="9cYoRjUQ95D6RNDLffrj-46" edge="1">
          <mxGeometry relative="1" as="geometry" />
        </mxCell>
        <mxCell id="9cYoRjUQ95D6RNDLffrj-63" value="N:1" style="edgeLabel;html=1;align=center;verticalAlign=middle;resizable=0;points=[];" parent="9cYoRjUQ95D6RNDLffrj-62" vertex="1" connectable="0">
          <mxGeometry x="-0.2015" y="-1" relative="1" as="geometry">
            <mxPoint as="offset" />
          </mxGeometry>
        </mxCell>
      </root>
    </mxGraphModel>
  </diagram>
</mxfile>
